<svg xmlns="http://www.w3.org/2000/svg" viewBox="0 0 384 512" fill="#9C27B0">
  <path d="M369.9 97.9L286 14C277 5 264.8-.1 252.1-.1H48C21.5 0 0 21.5 0 48v416c0 26.5 21.5 48 48 48h288c26.5 0 48-21.5 48-48V131.9c0-12.7-5.1-25-14.1-34zM332.1 128H256V51.9l76.1 76.1zM48 464V48h160v104c0 13.3 10.7 24 24 24h104v288H48zm228.1-175.8c-4 11.8-16.7 18.7-29.2 16.1-12.6-2.6-21.1-14.4-21.1-27.2V192h-26.3c-5.5 0-10.4 3.8-11.7 9.1-9.6 39.1-21.2 80.2-26.8 97.3-5.6 17.1-28.2 18.1-33.8 1-4.3-13.1-7.1-26.9-10.8-41.5-3.7-14.6-7.6-29.4-11.6-44.1-1.4-5.3-6.3-9.1-11.7-9.1H68.5c-7.7 0-13.4 7.1-11.7 14.7 22.8 95.9 78.1 278.5 80.3 285.6 2.2 7.1 9 11.8 16.5 11.8h32.2c7.5 0 14.3-4.7 16.5-11.8 2.2-7.1 57.5-189.7 80.3-285.6 1.6-7.6-4-14.7-11.7-14.7h-29.9c-5.5 0-10.4 3.8-11.7 9.1-4 16.3-7.9 32.6-11.6 47.4-3.7 14.8-7.1 28.6-11.4 41.7z"/>
</svg>

